<svg width="109" height="90" viewBox="0 0 109 90" fill="none" xmlns="http://www.w3.org/2000/svg">
<g clip-path="url(#clip0_98_468)">
<path d="M102.799 14.7673C97.6866 14.7673 93.5529 18.8484 93.5529 23.8962C93.5529 28.9439 97.6866 33.0251 102.799 33.0251C103.017 33.0251 103.18 33.0251 103.398 33.0251V33.6158V49.6718V63.8484C103.398 67.3926 100.515 70.2387 96.9251 70.2387H6.47255C2.88273 70.2387 0 67.3926 0 63.8484V6.39021C0 2.84606 2.88273 0 6.47255 0H96.9251C100.515 0 103.398 2.84606 103.398 6.39021V14.3377V14.7673H102.799ZM25.6183 49.6181C25.9446 50.5847 26.3797 51.7661 26.8693 53.216C24.6936 52.142 17.7315 55.2029 15.2295 56.0084C15.2295 56.0084 13.8698 54.7733 12.9995 54.3974C12.5644 54.1826 11.5309 54.3437 10.987 54.7733C10.8239 54.6659 10.6607 54.4511 10.3343 54.8807C10.1168 55.2029 10.2255 55.2566 10.4431 55.364C10.3343 55.5251 10.1712 55.7936 10.0624 56.0084C9.8992 55.9547 9.73603 55.7936 9.51846 56.2231C9.24651 56.7064 9.51846 56.7601 9.73603 56.8675C9.02894 58.2637 7.88673 59.1229 7.17964 60.5728C6.96208 60.4654 6.7989 60.358 6.58134 60.9487C6.41816 61.3783 6.58134 61.432 6.7989 61.5394C6.69012 61.969 6.58134 62.3449 6.52695 62.6671C6.47255 62.6671 6.09182 62.5597 6.03743 62.9893C5.98303 63.58 6.03743 63.6337 6.41816 63.6874C6.41816 63.9558 6.41816 64.2243 6.41816 64.4928C6.63573 65.352 7.39721 65.5131 7.83233 65.1909C10.2255 63.3652 12.0749 62.1838 13.4346 61.2709C16.9701 60.9487 26.7061 60.3043 29.5888 60.0358C31.003 60.1432 35.1911 56.5453 35.2455 55.3103C35.2999 53.0012 35.2455 51.4439 35.1367 49.6181C35.0279 48.1146 34.8648 46.4499 34.756 44.0871L35.4087 43.8723L35.4631 38.8783L36.8229 38.932C36.8229 38.932 36.8229 38.932 36.986 38.3413C40.4127 38.7172 46.9396 39.7375 51.2365 39.4153C52.0524 39.3616 52.8139 39.6838 53.3578 40.2745C54.4456 41.1874 62.4955 42.0465 69.24 42.0465C70.0559 44.3019 71.9052 44.6778 71.9052 44.6778C72.0684 44.7852 72.1771 44.6778 72.5579 44.5167C72.7754 44.7315 72.8842 44.8389 73.265 44.6778C73.5913 44.5167 73.5913 44.3556 73.4825 44.0871L73.8089 43.8723C74.0264 44.0871 74.1896 44.1945 74.516 43.9797C74.7879 43.7649 74.8423 43.7112 74.6247 43.389C75.3318 42.9594 79.248 40.0597 79.248 40.0597C79.4112 40.2208 79.4656 40.2745 79.5744 40.2745C79.6831 40.2745 80.0639 39.9523 80.1183 39.8449C80.1727 39.7375 80.0639 39.5764 79.9551 39.469L80.6078 38.932C80.7166 39.0931 80.8253 39.1468 80.9341 39.1468C81.0429 39.0931 81.2605 38.932 81.3693 38.7709C81.4237 38.6635 81.3149 38.5024 81.2061 38.395L81.6412 37.858C81.4781 37.1062 80.7166 37.1599 80.0095 37.2136C78.3234 37.321 73.4825 38.0728 71.6332 37.9654C68.1522 36.8377 55.0439 32.0048 54.2824 31.6826C53.4666 31.3604 52.7051 31.3067 51.8348 31.3067C48.2994 29.4272 41.6093 27.9773 41.011 27.8162C40.8478 27.7625 40.9022 27.494 40.8478 27.2792C40.8478 27.2792 37.9651 26.7422 35.5719 26.7959C36.007 25.1313 36.6597 20.0298 36.6597 18.4726C37.0404 18.6874 37.3124 18.8484 37.7475 18.8484C38.5634 18.9558 39.4336 18.3652 40.5215 17.9356C41.0654 17.7208 41.1741 18.043 41.4461 17.8282C42.1532 17.3986 42.4795 16.1635 43.513 15.358C44.1657 14.821 44.8728 14.9821 45.1447 14.3914C45.6342 13.3711 45.3623 12.673 45.1991 11.6527C44.9271 10.0418 44.5464 8.96778 43.2954 7.94749C42.262 7.142 41.4461 6.87351 40.1407 6.87351C38.6178 6.87351 36.0614 7.5716 34.6472 11.0621C33.0699 10.1492 32.4716 9.71957 30.8398 9.12888C27.7939 8.05489 18.2754 10.1492 17.1876 10.6325C17.2964 11.1158 17.242 11.5453 17.242 11.5453C17.242 11.5453 16.0998 11.599 15.6103 12.2434C13.3802 15.4654 10.7695 19.9761 10.7695 19.9761C9.84481 20.1372 9.24651 20.8353 8.81138 21.7482C8.37625 22.7148 7.94112 22.8222 6.96208 23.4129C6.30938 23.6277 6.52695 24.3258 6.90768 24.3258C7.61477 24.2721 8.21307 23.8962 8.92016 23.3592C8.53942 24.4869 7.17964 25.2924 7.12525 25.7757C7.28842 26.42 8.70259 27.2792 10.6607 25.8294C11.259 25.3461 11.9117 24.9702 12.3468 24.3795C12.5644 24.111 12.7275 22.8759 12.9995 21.963C13.4346 21.7482 16.6437 18.8484 18.9825 16.5394C18.9825 16.5394 23.7146 15.5728 25.999 15.2506C25.999 15.2506 24.2585 16.0561 22.4636 16.7005C19.5264 27.4403 19.744 32.1659 21.3214 32.7029C20.1248 34.8508 22.8987 43.5501 24.3129 47.2017L25.02 47.3091C24.8024 47.2554 25.1287 48.1146 25.6183 49.6181Z" fill="#D81A22"/>
<path d="M109 23.9499C109 27.1719 106.444 29.7494 103.289 29.7494C100.134 29.7494 97.5779 27.1719 97.5779 23.9499C97.5779 20.728 100.134 18.1504 103.289 18.1504C106.444 18.1504 109 20.728 109 23.9499Z" fill="#898888"/>
<path d="M0.65271 77.8103H6.25501C7.17966 77.8103 7.94113 78.1325 8.59383 78.7232C9.13774 79.2602 9.40969 80.012 9.40969 80.9249C9.40969 81.6767 9.13774 82.2673 8.64822 82.8043C8.37626 83.0728 7.99552 83.2876 7.61479 83.4487C8.1587 83.6098 8.59383 83.8783 8.92017 84.2005C9.46409 84.7375 9.73604 85.4356 9.73604 86.2948C9.73604 87.3151 9.4097 88.1743 8.70261 88.8724C8.1587 89.4094 7.28844 89.6778 6.20061 89.6778H0.65271V77.8103ZM2.28445 79.1528V82.8043H6.09183C6.58135 82.8043 6.96209 82.6432 7.28844 82.321C7.66918 81.9452 7.83235 81.4619 7.83235 80.8712C7.83235 80.3879 7.66918 79.9046 7.28844 79.5824C7.01648 79.3139 6.63574 79.1528 6.25501 79.1528H2.28445ZM2.28445 84.1468V88.3891H5.87427C6.58135 88.3891 7.12527 88.228 7.506 87.8521C7.94113 87.4225 8.1587 86.9392 8.1587 86.3485C8.1587 85.7041 7.99552 85.2208 7.61479 84.8449C7.17966 84.4153 6.63574 84.2005 5.92866 84.2005H2.28445V84.1468Z" fill="white"/>
<path d="M12.1292 77.8103H13.7609V86.1337C13.7609 86.7781 13.9785 87.3151 14.4136 87.7447C14.9032 88.228 15.6646 88.4965 16.6437 88.4965C17.6227 88.4965 18.3842 88.228 18.8737 87.7447C19.3089 87.3151 19.5264 86.7781 19.5264 86.1337V77.8103H21.1582V86.1874C21.1582 87.2077 20.8318 88.0132 20.1791 88.6576C19.4176 89.4094 18.2754 89.7852 16.6981 89.7852C15.1207 89.7852 13.9241 89.4094 13.217 88.6576C12.5643 88.0132 12.238 87.2077 12.238 86.1874V77.8103H12.1292Z" fill="white"/>
<path d="M23.6602 77.8103H25.4007L31.003 87.154V77.8103H32.6347V89.6241H30.8942L25.2919 80.2805V89.6778H23.6602V77.8103Z" fill="white"/>
<path d="M35.0823 77.8103H39.2705C40.6846 77.8103 41.8812 78.2936 42.8603 79.2602C43.8937 80.2805 44.3832 81.7841 44.3832 83.8246C44.3832 85.7578 43.8393 87.2614 42.7515 88.3354C41.8812 89.1946 40.6846 89.6241 39.2705 89.6241H35.0823V77.8103ZM36.6597 79.1528V88.3354H39.1617C40.0319 88.3354 40.7934 88.0669 41.3373 87.5299C42.2076 86.6707 42.6427 85.4356 42.6427 83.8783C42.6427 82.2136 42.2076 80.9786 41.3917 80.1194C40.739 79.475 39.9775 79.1528 39.1617 79.1528H36.6597Z" fill="white"/>
<path d="M46.722 77.8103H54.4456V79.0991H48.2994V82.7506H53.9561V84.0394H48.2994V88.2817H54.7719V89.5705H46.722V77.8103Z" fill="white"/>
<path d="M57.981 78.6695C58.6337 78.0251 59.6672 77.7029 60.9726 77.7029C62.4411 77.7029 63.529 78.0788 64.2904 78.8306C64.9431 79.475 65.2695 80.2268 65.2695 81.1396H63.6377C63.6377 80.6026 63.4746 80.1194 63.0938 79.7435C62.6587 79.3139 62.006 79.0991 61.1357 79.0991C60.1567 79.0991 59.4496 79.2602 59.1233 79.6361C58.7969 79.9583 58.6337 80.3341 58.6337 80.7637C58.6337 81.1933 58.7425 81.4618 58.9057 81.6766C59.1233 81.8914 59.5584 82.1599 60.1567 82.3747C61.2445 82.858 62.4411 83.3413 63.8009 83.9857C64.1817 84.1468 64.508 84.3616 64.8343 84.6838C65.3239 85.1671 65.5958 85.8115 65.5958 86.5096C65.5958 87.4225 65.2695 88.2279 64.6168 88.8723C63.9097 89.5704 62.7675 89.8926 61.1901 89.8926C59.6672 89.8926 58.4706 89.463 57.6003 88.6575C57.002 88.0668 56.6757 87.2077 56.6757 86.0263H58.3074C58.3074 86.8318 58.4706 87.4762 58.8513 87.8521C59.3408 88.3353 60.1567 88.6038 61.2445 88.6038C62.2236 88.6038 62.9307 88.389 63.4202 87.9057C63.8009 87.5299 63.9641 87.154 63.9641 86.7781C63.9641 86.3485 63.8009 86.0263 63.529 85.7578C63.3114 85.543 62.9306 85.2745 62.3867 85.0597C61.8972 84.8449 61.2989 84.5764 60.5374 84.2542C59.7216 83.8783 59.0145 83.6098 58.525 83.3413C58.1442 83.1802 57.8179 83.0191 57.5459 82.6969C57.1108 82.2673 56.8932 81.7303 56.8932 81.0322C57.002 80.0656 57.3284 79.3139 57.981 78.6695Z" fill="white"/>
<path d="M75.1687 89.8926H67.8259V77.5417H70.3823V87.852H75.1687V89.8926Z" fill="white"/>
<path d="M77.4531 77.5417H80.0095V89.8926H77.4531V77.5417Z" fill="white"/>
<path d="M92.9002 89.4093C92.1387 89.6778 90.6158 90 89.0928 90C87.0803 90 85.503 89.5167 84.3608 88.4964C83.2186 87.4761 82.5659 85.7577 82.5659 83.8245C82.5659 79.636 85.5574 77.4343 89.4191 77.4343C90.7789 77.4343 91.9211 77.6491 92.5738 77.9713L92.0299 79.9045C91.4316 79.636 90.6701 79.4749 89.4735 79.4749C87.0803 79.4749 85.2854 80.8174 85.2854 83.8245C85.2854 86.6706 86.9171 88.1205 89.1472 88.1205C89.7999 88.1205 90.235 88.0668 90.4526 87.9594V84.9522H88.4945V83.0728H92.9002V89.4093Z" fill="white"/>
<path d="M105.573 89.8926H102.854L101.875 86.6169H98.2849L97.3603 89.8926H94.7495L98.5569 77.5417H101.82L105.573 89.8926ZM101.548 84.8449L100.733 82.0525C100.515 81.3007 100.297 80.2804 100.134 79.5286H100.08C99.9167 80.2804 99.6991 81.3007 99.4815 82.0525L98.6657 84.8986H101.548V84.8449Z" fill="white"/>
</g>
<defs>
<clipPath id="clip0_98_468">
<rect width="109" height="90" fill="white"/>
</clipPath>
</defs>
</svg>
