<svg width="164" height="70" viewBox="0 0 164 70" fill="none" xmlns="http://www.w3.org/2000/svg">
<g clip-path="url(#clip0_98_425)">
<path d="M51.4295 29.5564C54.906 34.4201 55.8507 46.5419 53.3567 51.1063C53.3567 51.1063 51.7318 49.4602 50.6359 48.3378C50.1447 57.2047 45.27 64.2384 41.4912 66.3335C41.4912 66.3335 40.8866 63.939 40.3576 62.5173C33.0267 68.915 22.2571 68.1667 18.1005 65.5478C19.5364 58.8509 18.8562 49.9091 16.9668 47.2528C16.7023 48.1133 11.4498 55.8204 8.5023 57.7285C6.3106 53.3137 6.46175 43.2122 7.82212 39.7327C7.82212 39.7327 4.53456 40.6681 2.45622 41.2667C2.94747 38.124 5.32811 30.9781 9.59816 27.2742C9.59816 27.2742 7.40645 26.8252 6.12166 26.8252C7.82212 23.8322 10.1272 21.1758 12.8479 19.0059C12.5834 21.2881 13.377 23.7573 15.6065 24.8423C12.13 17.9209 17.3069 14.217 21.3124 17.6964C20.8968 16.6862 20.2166 15.7135 19.3853 15.0401C24.2599 12.8701 29.8147 11.9722 35.4074 12.683C36.4654 12.9823 38.0903 15.3394 38.2037 15.5264C38.2415 14.7782 38.2037 13.768 38.1281 13.1694C40.7355 13.768 43.3051 14.7408 45.8369 16.125C37.1078 9.24103 26.3382 9.80222 17.3825 14.217C16.6645 14.1421 15.871 14.3292 15.0396 14.853C14.5106 15.1897 14.0571 15.6761 13.717 16.2747C8.88018 19.4548 4.83687 23.7199 2.38065 28.3966C2.38065 28.3966 3.17419 28.5462 5.29032 28.8829C2.00276 33.4847 0.18894 39.8076 0 44.2597C0 44.2597 2.72074 43.5863 4.95023 42.8754C3.96774 49.2357 5.29032 57.9529 7.78433 61.0208C9.40922 60.0855 14.3217 55.6707 16.1355 52.6029C17.2691 56.3068 16.2111 63.0037 15.3797 66.5954C22.0304 71.0101 33.7447 70.5986 38.8839 66.1464C38.8839 66.1464 39.753 68.3538 40.0553 70.0374C43.8341 67.7552 51.0138 61.9187 52.1097 53.2389C52.1097 53.2389 53.2811 54.3987 54.1502 55.334C56.9843 48.4874 58.3825 36.0663 51.4295 29.5564Z" fill="white"/>
<path d="M15.7953 13.3939C21.7659 9.01657 32.5732 8.56761 39.1483 10.5131C39.3373 7.81935 40.6221 3.1427 41 2.58151C39.6774 3.36718 36.7299 6.62213 36.4654 7.18333C36.4276 4.97595 36.0497 0 36.0497 0C35.8986 0.0748263 30.117 6.50989 30.117 6.50989L25.9981 0L23.5041 7.4078L16.4 2.35703L17.3069 9.16622C15.9843 7.969 12.8101 6.02352 11.9788 5.72421C13.3769 7.14591 15.4553 12.0844 15.7953 13.3939Z" fill="white"/>
<path d="M38.9217 19.1181C37.2968 17.7339 33.0268 15.4891 33.0268 15.4891C29.0968 15.3394 25.1669 18.2576 24.0332 19.3052C24.5622 19.7916 25.2424 20.3154 25.2424 20.3154C23.0129 21.0636 21.3503 22.8969 20.7834 23.4955C21.6904 23.8696 23.3152 23.8696 23.3152 23.8696C24.9779 32.2502 33.2913 27.4987 38.0526 29.7061C36.2765 27.798 33.3291 25.1417 33.3291 25.1417C30.0037 25.3661 27.9632 25.2165 25.5825 23.271C27.812 21.6248 29.9281 21.101 30.3816 21.101C30.8351 21.101 33.707 22.5976 34.5383 23.1962C35.2563 22.5602 36.5411 22.186 37.259 21.999C36.3143 23.0091 36.0876 24.356 36.3143 24.8424C37.7125 26.1144 39.4885 28.0599 40.4332 29.07C42.5493 28.0599 46.1392 27.8728 48.1798 29.07C46.5171 27.0871 43.9097 25.1417 43.9097 25.1417C43.6074 24.2812 41.9825 22.2234 41.9825 22.2234C43.8719 23.1214 44.7788 23.907 44.7788 23.907C45.5346 22.9343 46.6682 22.5976 46.6682 22.5976C47.5752 23.6825 47.6507 24.5431 47.6885 24.8424C47.7263 25.1417 46.895 25.4784 46.895 25.4784L49.2378 28.1721C51.165 22.5227 44.2498 18.6318 40.0176 16.3122C39.8664 17.3971 38.9217 19.1181 38.9217 19.1181Z" fill="white"/>
<path d="M48.8977 31.5393C48.142 32.1005 47.2729 32.8488 46.177 33.1855V37.4506C47.4618 38.4982 48.6332 40.3688 49.3134 41.7905C50.4093 38.124 50.2581 34.3453 48.8977 31.5393Z" fill="white"/>
<path d="M43.5318 45.9808C43.7585 47.627 43.9097 49.4602 43.9853 50.2833C44.93 49.4228 45.7613 48.5249 46.4793 47.5147C47.424 46.0182 47.6885 44.4468 47.6885 44.2598C47.7263 43.8108 47.2728 42.7258 46.177 41.0422H43.1539C43.1539 41.0422 39.6396 44.5965 36.8055 44.7087C37.788 46.4671 38.6572 47.9263 38.9595 48.45C40.7355 48.1133 43.3429 46.3923 43.5318 45.9808Z" fill="white"/>
<path d="M43.8341 37.2635V33.1855C42.8516 32.9236 41.7558 32.325 40.4332 31.24C38.0148 31.3148 32.9134 34.6072 31.9309 35.6173C32.1576 36.2908 33.5558 38.8723 35.0295 41.6034C37.9014 41.6408 42.5493 39.0968 43.8341 37.2635Z" fill="white"/>
<path d="M68.8875 27.1246H70.7392C76.7852 27.162 79.9972 24.543 79.9972 19.3426C79.9972 17.023 78.8258 14.6286 77.1631 13.5436C75.5005 12.4586 74.2534 12.0096 70.3991 11.9348H64.5797V34.5324H68.8875V27.1246ZM68.8875 16.0503H71.5327C74.518 16.2373 75.5004 17.8087 75.5382 19.4923C75.5382 22.2234 73.4977 23.1213 71.117 23.0839H68.9253V16.0503H68.8875Z" fill="white"/>
<path d="M85.4765 26.6756C85.6655 24.1689 87.8194 22.8595 90.4646 23.5703V19.7542C87.9328 19.2678 86.5346 20.0535 85.4765 21.9989L85.0231 19.7542H81.5088V34.5698H85.5143V26.6756H85.4765Z" fill="white"/>
<path d="M99.1558 34.9813C102.594 34.7568 104.408 33.0732 105.353 32.1753L102.972 29.706C102.141 30.5291 101.196 31.427 98.8157 31.5019C96.6996 31.5019 95.0369 29.9305 95.0369 28.3966H106.109C106.298 27.0123 106.184 25.179 105.504 23.6451C104.371 20.9888 101.65 19.3426 98.8157 19.3052C94.3945 19.38 90.9558 22.5601 90.8424 27.2742C90.8802 31.5767 93.9788 34.9439 99.1558 34.9813ZM98.6267 22.7846C100.592 22.7472 101.914 24.2063 102.254 25.6654H94.9991C95.2258 24.2063 96.6618 22.822 98.6267 22.7846Z" fill="white"/>
<path d="M111.928 25.3661C112.042 23.9444 113.1 23.2336 114.347 23.1213C115.405 23.0465 116.652 23.7948 116.878 25.179V34.5697H120.808V25.8525C120.884 24.2063 121.942 23.1961 123.302 23.0839C124.36 23.0091 125.759 23.8322 125.834 25.7777V34.5323H129.802V25.2165C129.877 22.186 128.101 19.4548 124.701 19.3052C122.358 19.38 121.262 19.9786 120.015 21.6996C119.032 20.465 118.012 19.2678 115.631 19.3052C113.931 19.3052 112.873 20.0534 111.89 21.5874L111.475 19.7167H107.847V34.5697H111.853V25.3661H111.928Z" fill="white"/>
<path d="M136.15 19.7542H132.031V34.5698H136.15V19.7542Z" fill="white"/>
<path d="M69.0387 37.0391H64.5042V59.1128H78.5991V55.0348H69.0387V37.0391Z" fill="white"/>
<path d="M108.565 46.1304C107.28 44.5216 105.806 44.0352 104.106 43.9978C102.292 43.9978 100.478 44.6712 99.118 45.7936C97.4175 47.365 96.4351 49.3853 96.4351 51.443C96.4351 53.5007 97.0397 55.2592 98.2111 56.6809C99.6093 58.4393 101.536 59.412 103.426 59.4868C105.504 59.5617 107.167 58.9256 108.603 57.2421L109.056 59.0753H112.684V44.1849H108.981L108.565 46.1304ZM104.9 55.7081C103.917 55.7455 102.935 55.4088 102.103 54.7728C101.159 53.9871 100.781 52.8273 100.781 51.7049C100.932 49.2731 102.481 47.8888 104.786 47.7391C107.205 47.8888 108.641 49.5724 108.603 51.8546C108.565 53.8749 107.091 55.5585 104.9 55.7081Z" fill="white"/>
<path d="M142.952 51.5179C142.952 52.6403 142.839 54.1368 141.818 54.9225C141.327 55.3341 140.647 55.6708 139.476 55.6334C138.72 55.5959 137.851 55.2592 137.208 54.4361C136.566 53.6131 136.641 52.3784 136.641 51.3683V44.1849H132.409V52.4907C132.409 54.8103 133.354 56.5313 134.45 57.504C135.735 58.7012 137.208 59.3373 139.513 59.4495C141.818 59.5617 143.67 58.8883 145.03 57.6911C146.429 56.3068 147.222 54.7354 147.222 52.8274V44.1849H143.065V51.5179H142.952Z" fill="white"/>
<path d="M134.185 17.7338C134.903 17.7338 135.508 17.4719 135.999 16.9856C136.49 16.4992 136.755 15.8632 136.755 15.1897C136.755 14.4789 136.49 13.8803 135.999 13.3939C135.508 12.9075 134.903 12.6456 134.185 12.6456C133.467 12.6456 132.863 12.9075 132.371 13.3939C131.88 13.8803 131.616 14.4789 131.616 15.1897C131.616 15.9006 131.88 16.4992 132.371 16.9856C132.863 17.4719 133.467 17.7338 134.185 17.7338Z" fill="white"/>
<path d="M158.974 26.6756C159.163 24.1689 161.317 22.8595 163.962 23.5703V19.7542C161.43 19.2678 160.032 20.0535 158.974 21.9989L158.521 19.7542H155.006V34.5698H159.012V26.6756H158.974Z" fill="white"/>
<path d="M146.164 34.9813C149.603 34.7568 151.417 33.0732 152.361 32.1753L149.981 29.706C149.149 30.5291 148.205 31.427 145.824 31.5019C143.708 31.5019 142.045 29.9305 142.045 28.3966H153.117C153.306 27.0123 153.193 25.179 152.512 23.6451C151.379 20.9888 148.658 19.3426 145.824 19.3052C141.403 19.38 137.964 22.5601 137.851 27.2742C137.888 31.5767 140.987 34.9439 146.164 34.9813ZM145.635 22.7846C147.6 22.7472 148.923 24.2063 149.263 25.6654H142.007C142.234 24.2063 143.67 22.822 145.635 22.7846Z" fill="white"/>
<path d="M130.406 44.2223H126.703L126.288 46.1304C125.003 44.5216 123.529 44.0352 121.829 43.9978C120.015 43.9978 118.201 44.6712 116.841 45.7936C115.14 47.365 114.158 49.3853 114.158 51.443C114.158 53.5007 114.762 55.2592 115.934 56.6809C117.596 58.7012 120.09 59.9732 123.718 59.2624C124.549 59.0379 125.305 58.5889 126.099 57.7658C126.779 61.9187 123.605 63.0037 120.695 62.5173C119.788 62.3677 118.617 61.8813 117.143 60.5718L114.838 63.7519C116.803 65.4355 119.335 66.4083 121.753 66.4457C125.683 66.4831 130.558 64.4628 130.406 57.9155V44.2223ZM122.66 55.7081C121.677 55.7455 120.695 55.4088 119.864 54.7728C118.919 53.9871 118.541 52.8273 118.541 51.7049C118.692 49.2731 120.241 47.8888 122.547 47.7391C124.965 47.8888 126.401 49.5724 126.363 51.8546C126.325 53.8749 124.852 55.5585 122.66 55.7081Z" fill="white"/>
<path d="M163.32 48.1881C162.186 45.5317 159.465 43.8856 156.631 43.8481C152.21 43.923 148.771 47.1031 148.658 51.8171C148.696 56.0822 151.832 59.4494 156.971 59.4868C160.41 59.2624 162.224 57.5788 163.169 56.6809L160.788 54.2116C159.957 55.0347 159.012 55.9326 156.631 56.0074C154.515 56.0074 152.853 54.4361 152.853 52.9021H163.924C164.113 51.5178 163.962 49.722 163.32 48.1881ZM152.815 50.171C153.041 48.7119 154.477 47.3276 156.442 47.2902C158.407 47.2527 159.73 48.7119 160.07 50.171H152.815Z" fill="white"/>
<path d="M87.5548 43.8481C83.1336 43.923 79.6949 47.1031 79.5815 51.8171C79.6193 56.0822 82.7557 59.4494 87.8949 59.4868C91.3336 59.2624 93.1474 57.5788 94.0921 56.6809L91.7115 54.2116C90.8802 55.0347 89.9355 55.9326 87.5548 56.0074C85.4387 56.0074 83.776 54.4361 83.776 52.9021H94.8479C95.0368 51.5178 94.9235 49.6846 94.2433 48.1507C93.1096 45.5691 90.3889 43.8856 87.5548 43.8481ZM83.7382 50.171C83.965 48.7119 85.4009 47.3276 87.3659 47.2902C89.3308 47.2527 90.6534 48.7119 90.9935 50.171H83.7382Z" fill="white"/>
</g>
<defs>
<clipPath id="clip0_98_425">
<rect width="164" height="70" fill="white"/>
</clipPath>
</defs>
</svg>
