<svg width="90" height="104" viewBox="0 0 90 104" fill="none" xmlns="http://www.w3.org/2000/svg">
<g clip-path="url(#clip0_98_447)">
<path d="M12.4557 92.736C12.3918 92.672 12.3279 92.512 12.4237 92.416L13.8929 90.72C13.9567 90.624 14.0845 90.624 14.1803 90.688C15.0426 91.392 16.2243 92.032 17.6296 92.032C19.0029 92.032 19.7694 91.392 19.7694 90.464C19.7694 89.696 19.2903 89.216 17.7254 88.992L17.0227 88.896C14.34 88.544 12.8709 87.264 12.8709 84.928C12.8709 82.496 14.6913 80.896 17.5337 80.896C19.2903 80.896 20.8872 81.408 22.005 82.272C22.1328 82.336 22.1328 82.432 22.0369 82.56L20.8552 84.32C20.7914 84.416 20.6636 84.448 20.5997 84.384C19.5777 83.712 18.6196 83.392 17.5337 83.392C16.384 83.392 15.7772 84 15.7772 84.832C15.7772 85.6 16.3201 86.08 17.8212 86.272L18.5238 86.4C21.2385 86.752 22.6757 88 22.6757 90.4C22.6757 92.8 20.9191 94.56 17.5018 94.56C15.4578 94.528 13.4777 93.728 12.4557 92.736Z" fill="white"/>
<path d="M24.2086 81.3441C24.2086 81.2161 24.2725 81.1521 24.4002 81.1521H32.8318C32.9595 81.1521 33.0234 81.2161 33.0234 81.3441V83.4241C33.0234 83.5521 32.9595 83.6161 32.8318 83.6161H27.1788C27.1149 83.6161 27.0511 83.6481 27.0511 83.7441V86.3681C27.0511 86.4321 27.083 86.4961 27.1788 86.4961H31.9056C32.0333 86.4961 32.0972 86.5601 32.0972 86.6881V88.7361C32.0972 88.8641 32.0333 88.9281 31.9056 88.9281H27.1788C27.1149 88.9281 27.0511 88.9601 27.0511 89.0561V91.7761C27.0511 91.8401 27.083 91.9041 27.1788 91.9041H32.8318C32.9595 91.9041 33.0234 91.9681 33.0234 92.0961V94.1761C33.0234 94.3041 32.9595 94.3681 32.8318 94.3681H24.4002C24.2725 94.3681 24.2086 94.3041 24.2086 94.1761V81.3441Z" fill="white"/>
<path d="M42.0298 94.3361C41.8701 94.3361 41.8062 94.2721 41.7423 94.1441L39.4748 89.3121H37.6863C37.6224 89.3121 37.5585 89.3441 37.5585 89.4401V94.1441C37.5585 94.2721 37.4946 94.3361 37.3669 94.3361H34.9077C34.7799 94.3361 34.7161 94.2721 34.7161 94.1441V81.3441C34.7161 81.2161 34.7799 81.1521 34.9077 81.1521H40.1454C42.8282 81.1521 44.6167 82.8481 44.6167 85.2481C44.6167 86.9441 43.7225 88.2881 42.2853 88.8961L44.8722 94.0801C44.9361 94.2081 44.8722 94.3041 44.7445 94.3041H42.0298V94.3361ZM41.8062 85.2481C41.8062 84.2561 41.1036 83.6161 40.0177 83.6161H37.6863C37.6224 83.6161 37.5585 83.6481 37.5585 83.7441V86.7841C37.5585 86.8481 37.5904 86.9121 37.6863 86.9121H40.0177C41.1036 86.8801 41.8062 86.2401 41.8062 85.2481Z" fill="white"/>
<path d="M46.4371 81.3441C46.4371 81.2161 46.501 81.1521 46.6288 81.1521H49.088C49.2157 81.1521 49.2796 81.2161 49.2796 81.3441V94.1441C49.2796 94.2721 49.2157 94.3361 49.088 94.3361H46.6288C46.501 94.3361 46.4371 94.2721 46.4371 94.1441V81.3441Z" fill="white"/>
<path d="M51.3875 81.3441C51.3875 81.2161 51.4513 81.1521 51.5791 81.1521H60.0106C60.1383 81.1521 60.2022 81.2161 60.2022 81.3441V83.4241C60.2022 83.5521 60.1383 83.6161 60.0106 83.6161H54.3576C54.2938 83.6161 54.2299 83.6481 54.2299 83.7441V86.3681C54.2299 86.4321 54.2618 86.4961 54.3576 86.4961H59.0844C59.2122 86.4961 59.276 86.5601 59.276 86.6881V88.7361C59.276 88.8641 59.2122 88.9281 59.0844 88.9281H54.3576C54.2938 88.9281 54.2299 88.9601 54.2299 89.0561V91.7761C54.2299 91.8401 54.2618 91.9041 54.3576 91.9041H60.0106C60.1383 91.9041 60.2022 91.9681 60.2022 92.0961V94.1761C60.2022 94.3041 60.1383 94.3681 60.0106 94.3681H51.5791C51.4513 94.3681 51.3875 94.3041 51.3875 94.1761V81.3441Z" fill="white"/>
<path d="M69.6558 81.3441C69.6877 81.2161 69.7835 81.1521 69.9113 81.1521H72.3385C72.4663 81.1521 72.5621 81.2161 72.594 81.3441L77.0333 94.1441C77.0653 94.2721 77.0333 94.3361 76.9056 94.3361H74.3825C74.2548 94.3361 74.159 94.2721 74.127 94.1441L73.3605 91.8401H68.7615L68.027 94.1441C67.995 94.2721 67.8992 94.3361 67.7715 94.3361H65.2484C65.1206 94.3361 65.0568 94.2721 65.1206 94.1441L69.6558 81.3441ZM72.594 89.4081L71.093 84.8001H71.0291L69.528 89.4081H72.594Z" fill="white"/>
<path d="M30.0213 100.768H0V104H30.0213V100.768Z" fill="#00B74F"/>
<path d="M59.9787 100.768H30.0212V104H59.9787V100.768Z" fill="#E3E3E2"/>
<path d="M90 100.768H59.9788V104H90V100.768Z" fill="#E4002B"/>
<path d="M44.9681 74.496L12.9347 54.144H32.5443L44.9681 74.496Z" fill="#1A1659"/>
<path d="M44.968 74.496L77.0333 54.144H57.3917L44.968 74.496Z" fill="#1A1659"/>
<path d="M44.968 21.28L32.5443 54.144H44.968H57.3917L44.968 21.28Z" fill="#1A1659"/>
<path d="M32.5443 54.144L44.968 74.496L57.3917 54.144H32.5443Z" fill="url(#paint0_linear_98_447)"/>
<path d="M44.9681 21.28L50.3336 35.456H43.5628L38.9638 47.68H54.9645L57.3918 54.144H77.0333L53.8148 0C47.9063 0 42.0298 0 36.1213 0L12.9347 54.144H32.5763L44.9681 21.28Z" fill="url(#paint1_linear_98_447)"/>
</g>
<defs>
<linearGradient id="paint0_linear_98_447" x1="32.5443" y1="64.32" x2="57.3917" y2="64.32" gradientUnits="userSpaceOnUse">
<stop stop-color="#31ECFF"/>
<stop offset="0.0494" stop-color="#2DE2FF"/>
<stop offset="0.2964" stop-color="#1BB2FF"/>
<stop offset="0.5147" stop-color="#0E90FF"/>
<stop offset="0.694" stop-color="#067BFF"/>
<stop offset="0.8118" stop-color="#0373FF"/>
</linearGradient>
<linearGradient id="paint1_linear_98_447" x1="63.3846" y1="3.48995" x2="41.1584" y2="64.4367" gradientUnits="userSpaceOnUse">
<stop stop-color="#31ECFF"/>
<stop offset="0.0488" stop-color="#2DE2FF"/>
<stop offset="0.2932" stop-color="#1BB2FF"/>
<stop offset="0.5091" stop-color="#0E90FF"/>
<stop offset="0.6863" stop-color="#067BFF"/>
<stop offset="0.8028" stop-color="#0373FF"/>
</linearGradient>
<clipPath id="clip0_98_447">
<rect width="90" height="104" fill="white"/>
</clipPath>
</defs>
</svg>
